<svg id="Capa_1" enable-background="new 0 0 512.095 512.095" height="512" viewBox="0 0 512.095 512.095" width="512"
     xmlns="http://www.w3.org/2000/svg">
    <g>
        <path d="m256.047 0c-141.411 0-256.047 114.636-256.047 256.047s114.636 256.047 256.047 256.047 256.047-114.636 256.047-256.047-114.636-256.047-256.047-256.047zm-192.313 256.047c0-106.212 86.102-192.313 192.313-192.313 41.614 0 80.139 13.221 111.61 35.687l-268.236 268.237c-22.466-31.471-35.687-69.996-35.687-111.611zm192.313 192.314c-41.589 0-80.092-13.204-111.552-35.644l268.221-268.221c22.441 31.46 35.644 69.964 35.644 111.552.001 106.211-86.101 192.313-192.313 192.313z"/>
    </g>
</svg>