<?xml version="1.0" encoding="utf-8"?><svg version="1.1" id="Layer_1" xmlns="http://www.w3.org/2000/svg" xmlns:xlink="http://www.w3.org/1999/xlink" x="0px" y="0px" viewBox="0 0 113.07 122.88" style="enable-background:new 0 0 113.07 122.88" xml:space="preserve"><g><path d="M24.83,58.39L4.39,100.6l4.68,14.59l25.4-50.63c-3.45-1.11-6.53-3.03-9.03-5.53C25.24,58.82,25.03,58.61,24.83,58.39 L24.83,58.39z M32.59,22.23V8.83c0-2.43,0.99-4.64,2.59-6.24C36.79,0.99,39,0,41.43,0s4.64,0.99,6.24,2.59 c1.6,1.6,2.59,3.81,2.59,6.24v13.39c2.69,1.14,5.11,2.79,7.15,4.83c4.09,4.09,6.62,9.74,6.62,15.98c0,4.22-1.16,8.18-3.18,11.56 l1.52,3.14l15.17-43.36c0.21-0.6,0.64-1.05,1.17-1.31c0.53-0.26,1.15-0.31,1.76-0.1l31.06,10.87l0,0c0.6,0.21,1.05,0.64,1.31,1.17 c0.25,0.52,0.31,1.15,0.1,1.75l-28.85,82.47c-0.21,0.6-0.65,1.06-1.17,1.31c-0.53,0.26-1.15,0.31-1.76,0.1l-1.35-0.51l-3.62,11.27 c-0.36,1.11-1.55,1.72-2.66,1.37c-0.6-0.19-1.05-0.63-1.29-1.16l-8.58-17.1L50.1,99.78l0-0.01l-0.01,0 c-0.59-0.21-1.05-0.63-1.3-1.16c-0.26-0.53-0.31-1.16-0.1-1.76l4.57-13.06l-9.18-18.3c-0.87,0.1-1.75,0.15-2.65,0.15 c-0.91,0-1.81-0.05-2.69-0.16l-28.17,56.13c-0.24,0.53-0.69,0.96-1.29,1.16c-1.11,0.36-2.31-0.25-2.66-1.37l-6.5-20.26 c-0.18-0.52-0.17-1.1,0.09-1.63l21.77-44.95c-2.01-3.38-3.16-7.32-3.16-11.53c0-6.24,2.53-11.89,6.62-15.98 C27.48,25.02,29.9,23.37,32.59,22.23L32.59,22.23z M46.02,20.9V8.83c0-1.26-0.52-2.41-1.35-3.24c-0.83-0.83-1.98-1.35-3.24-1.35 s-2.41,0.52-3.24,1.35c-0.83,0.83-1.35,1.98-1.35,3.24V20.9c1.48-0.31,3.02-0.47,4.59-0.47S44.53,20.6,46.02,20.9L46.02,20.9z M58,58.42c-0.19,0.21-0.39,0.41-0.59,0.61c-2.51,2.51-5.6,4.43-9.06,5.54l6.86,13.67l0.01-0.03l4.4,8.75l-0.04-0.01l7.11,14.17 l0.06,0.02l2.73,5.43l-0.07-0.03l4.34,8.65l4.68-14.59l-4.98-10.28l-0.03,0.04l-1.41-2.91l0.05,0.02l-7.45-15.38l-0.02-0.01 l-4.2-8.69l0-0.01L58,58.42L58,58.42z M41.43,34.09c2.47,0,4.71,1,6.33,2.62c1.62,1.62,2.62,3.86,2.62,6.33 c0,2.47-1,4.71-2.62,6.33c-1.62,1.62-3.86,2.62-6.33,2.62c-2.47,0-4.71-1-6.33-2.62c-1.62-1.62-2.62-3.86-2.62-6.33 c0-2.47,1-4.71,2.62-6.33C36.72,35.09,38.96,34.09,41.43,34.09L41.43,34.09z M44.75,39.71c-0.85-0.85-2.03-1.38-3.33-1.38 s-2.48,0.53-3.33,1.38c-0.85,0.85-1.38,2.03-1.38,3.33c0,1.3,0.53,2.48,1.38,3.33c0.85,0.85,2.03,1.38,3.33,1.38 s2.48-0.53,3.33-1.38c0.85-0.85,1.38-2.03,1.38-3.33C46.13,41.74,45.6,40.56,44.75,39.71L44.75,39.71z M54.41,30.06 c-3.32-3.32-7.91-5.38-12.98-5.38s-9.66,2.05-12.98,5.38c-3.32,3.32-5.38,7.91-5.38,12.98s2.06,9.66,5.38,12.98 c3.32,3.32,7.91,5.38,12.98,5.38s9.66-2.06,12.98-5.38c0.77-0.77,1.48-1.61,2.1-2.51c0.09-0.18,0.2-0.35,0.34-0.5 c1.86-2.87,2.94-6.29,2.94-9.97C59.79,37.97,57.73,33.38,54.41,30.06L54.41,30.06z M64.97,63.09l3.07,6.34L70,70.12 c1.1,0.38,1.73,1.47,1.4,2.41c-0.2,0.57-0.71,0.97-1.32,1.1l12.54,25.88c0.1,0.21,0.16,0.42,0.19,0.63l25.53-72.96L80.89,17.6 l-2.68,7.66l14.1,4.93c1.1,0.39,1.72,1.46,1.39,2.41c-0.33,0.94-1.49,1.4-2.59,1.01l-14.1-4.93l-3.8,10.83l6.68,2.34 c1.1,0.38,1.73,1.47,1.4,2.41c-0.33,0.94-1.5,1.4-2.6,1.02l-6.68-2.33l-3.84,10.98l14.1,4.93c1.1,0.39,1.73,1.47,1.4,2.41 s-1.5,1.4-2.6,1.02l-14.1-4.93L64.97,63.09L64.97,63.09z M60.94,99.1l-5.05-10.06c-2.49,7.12,1.47-4.22-2.58,7.39L60.94,99.1 L60.94,99.1z"/></g></svg>