<?xml version="1.0" encoding="iso-8859-1"?>
<!-- Generator: Adobe Illustrator 17.1.0, SVG Export Plug-In . SVG Version: 6.00 Build 0)  -->
<!DOCTYPE svg PUBLIC "-//W3C//DTD SVG 1.1//EN" "http://www.w3.org/Graphics/SVG/1.1/DTD/svg11.dtd">
<svg version="1.1" id="Capa_1" xmlns="http://www.w3.org/2000/svg" xmlns:xlink="http://www.w3.org/1999/xlink" x="0px" y="0px"
	 viewBox="0 0 442 442" style="enable-background:new 0 0 442 442;" xml:space="preserve">
<path d="M381,261.995v-161.99v-0.01V10c0-5.522-4.478-10-10-10H111C83.43,0,61,22.43,61,50v342c0,27.57,22.43,50,50,50h260
	c5.522,0,10-4.478,10-10s-4.478-10-10-10h-5.638v-60H371c5.522,0,10-4.478,10-10v-89.995V261.995z M361,342h-55.857L361,286.143V342
	z M361,75.857L305.143,20H361V75.857z M81,50c0-16.542,13.458-30,30-30v237.889c0,5.522,4.478,10,10,10s10-4.478,10-10V20h145.857
	L361,104.143v153.715L276.857,342H131v-50c0-5.522-4.478-10-10-10s-10,4.478-10,10v50c-11.246,0-21.638,3.733-30,10.023V50z
	 M345.362,422H111c-16.542,0-30-13.458-30-30s13.458-30,30-30h234.362V422z"/>
<g>
</g>
<g>
</g>
<g>
</g>
<g>
</g>
<g>
</g>
<g>
</g>
<g>
</g>
<g>
</g>
<g>
</g>
<g>
</g>
<g>
</g>
<g>
</g>
<g>
</g>
<g>
</g>
<g>
</g>
</svg>
